<svg width="94" height="55" version="1.1" xmlns="http://www.w3.org/2000/svg" desc="Created with imagetracer.js version 1.2.6" ><path fill="rgb(48,48,128)" stroke="rgb(48,48,128)" stroke-width="1" opacity="0.06274509803921569" d="M 13.5 17 L 12.5 19 L 13.5 17 Z " /><path fill="rgb(48,48,128)" stroke="rgb(48,48,128)" stroke-width="1" opacity="0.06274509803921569" d="M 5.5 25 L 4.5 27 L 5.5 25 Z " /><path fill="rgb(48,48,128)" stroke="rgb(48,48,128)" stroke-width="1" opacity="0.06274509803921569" d="M 88.5 28 L 87.5 30 L 88.5 28 Z " /><path fill="rgb(48,48,128)" stroke="rgb(48,48,128)" stroke-width="1" opacity="0.06274509803921569" d="M 82.5 34 L 80.5 37 L 82.5 34 Z " /><path fill="rgb(48,48,128)" stroke="rgb(48,48,128)" stroke-width="1" opacity="0.06274509803921569" d="M 2.5 46 L 5.5 50 L 2.5 46 Z " /><path fill="rgb(53,52,132)" stroke="rgb(53,52,132)" stroke-width="1" opacity="0.4666666666666667" d="M 55.5 0 L 60 0.5 L 55.5 1 L 55.5 0 Z " /><path fill="rgb(53,52,132)" stroke="rgb(53,52,132)" stroke-width="1" opacity="0.4666666666666667" d="M 72.5 0 L 77 0.5 L 72.5 1 L 72.5 0 Z " /><path fill="rgb(53,52,132)" stroke="rgb(53,52,132)" stroke-width="1" opacity="0.4666666666666667" d="M 50.5 1 L 53 1.5 L 50.5 2 L 50.5 1 Z " /><path fill="rgb(53,52,132)" stroke="rgb(53,52,132)" stroke-width="1" opacity="0.4666666666666667" d="M 82.5 2 L 87 4.5 L 85.5 4 Q 81.8 3.7 82.5 2 Z " /><path fill="rgb(53,52,132)" stroke="rgb(53,52,132)" stroke-width="1" opacity="0.4666666666666667" d="M 88.5 5 L 90.5 8 L 88.5 5 Z " /><path fill="rgb(53,52,132)" stroke="rgb(53,52,132)" stroke-width="1" opacity="0.4666666666666667" d="M 21.5 12 L 20.5 14 L 21.5 12 Z " /><path fill="rgb(53,52,132)" stroke="rgb(53,52,132)" stroke-width="1" opacity="0.4666666666666667" d="M 93.5 13 L 94 17.5 L 93 17.5 L 93.5 13 Z " /><path fill="rgb(53,52,132)" stroke="rgb(53,52,132)" stroke-width="1" opacity="0.4666666666666667" d="M 15.5 16 L 14.5 18 L 15.5 16 Z " /><path fill="rgb(53,52,132)" stroke="rgb(53,52,132)" stroke-width="1" opacity="0.4666666666666667" d="M 11.5 19 L 6.5 25 L 11.5 19 Z " /><path fill="rgb(53,52,132)" stroke="rgb(53,52,132)" stroke-width="1" opacity="0.4666666666666667" d="M 91.5 23 L 90.5 25 L 91.5 23 Z " /><path fill="rgb(53,52,132)" stroke="rgb(53,52,132)" stroke-width="1" opacity="0.4666666666666667" d="M 4.5 27 L 3.5 29 L 4.5 27 Z " /><path fill="rgb(53,52,132)" stroke="rgb(53,52,132)" stroke-width="1" opacity="0.4666666666666667" d="M 86.5 30 L 83.5 34 L 86.5 30 Z " /><path fill="rgb(53,52,132)" stroke="rgb(53,52,132)" stroke-width="1" opacity="0.4666666666666667" d="M 0.5 35 L 1 42.5 L 0 42.5 L 0.5 35 Z " /><path fill="rgb(53,52,132)" stroke="rgb(53,52,132)" stroke-width="1" opacity="0.4666666666666667" d="M 79.5 36 L 78.5 38 L 79.5 36 Z " /><path fill="rgb(53,52,132)" stroke="rgb(53,52,132)" stroke-width="1" opacity="0.4666666666666667" d="M 73.5 40 L 72.5 42 L 73.5 40 Z " /><path fill="rgb(53,52,132)" stroke="rgb(53,52,132)" stroke-width="1" opacity="0.4666666666666667" d="M 6.5 49 L 11 51.5 L 9.5 52 L 6.5 49 Z " /><path fill="rgb(53,52,132)" stroke="rgb(53,52,132)" stroke-width="1" opacity="0.4666666666666667" d="M 42.5 52 L 45 52.5 L 42.5 53 L 42.5 52 Z " /><path fill="rgb(53,52,132)" stroke="rgb(53,52,132)" stroke-width="1" opacity="0.4666666666666667" d="M 15.5 53 L 19 53.5 L 15.5 54 L 15.5 53 Z " /><path fill="rgb(53,52,132)" stroke="rgb(53,52,132)" stroke-width="1" opacity="0.4666666666666667" d="M 36.5 53 L 40 53.5 L 36.5 54 L 36.5 53 Z " /><path fill="rgb(53,52,132)" stroke="rgb(53,52,132)" stroke-width="1" opacity="0.4666666666666667" d="M 21.5 54 L 33 54.5 L 21.5 55 L 21.5 54 Z " /><path fill="rgb(208,200,217)" stroke="rgb(208,200,217)" stroke-width="1" opacity="1" d="M 60.5 1 L 69 1.5 L 60.5 2 L 60.5 1 Z " /><path fill="rgb(208,200,217)" stroke="rgb(208,200,217)" stroke-width="1" opacity="1" d="M 83.5 5 L 84.5 7 L 83.5 5 Z " /><path fill="rgb(208,200,217)" stroke="rgb(208,200,217)" stroke-width="1" opacity="1" d="M 41.5 12 L 43.5 15 L 41.5 12 Z " /><path fill="rgb(208,200,217)" stroke="rgb(208,200,217)" stroke-width="1" opacity="1" d="M 17.5 17 L 16.5 19 L 17.5 17 Z " /><path fill="rgb(208,200,217)" stroke="rgb(208,200,217)" stroke-width="1" opacity="1" d="M 45.5 17 L 47.5 20 L 45.5 17 Z " /><path fill="rgb(208,200,217)" stroke="rgb(208,200,217)" stroke-width="1" opacity="1" d="M 9.5 25 L 8.5 27 L 9.5 25 Z " /><path fill="rgb(208,200,217)" stroke="rgb(208,200,217)" stroke-width="1" opacity="1" d="M 57.5 25 L 55.5 28 L 57.5 25 Z " /><path fill="rgb(208,200,217)" stroke="rgb(208,200,217)" stroke-width="1" opacity="1" d="M 84.5 29 L 79.5 35 L 84.5 29 Z " /><path fill="rgb(208,200,217)" stroke="rgb(208,200,217)" stroke-width="1" opacity="1" d="M 53.5 30 L 53 31.5 L 52.5 34 L 48.5 32 L 46 33.5 Q 47.8 29.3 49.5 32 L 53.5 30 Z " /><path fill="rgb(208,200,217)" stroke="rgb(208,200,217)" stroke-width="1" opacity="1" d="M 51.5 35 L 50.5 37 L 51.5 35 Z " /><path fill="rgb(208,200,217)" stroke="rgb(208,200,217)" stroke-width="1" opacity="1" d="M 4.5 36 L 5 38.5 L 4 38.5 L 4.5 36 Z " /><path fill="rgb(208,200,217)" stroke="rgb(208,200,217)" stroke-width="1" opacity="1" d="M 34.5 38 L 37 38.5 L 34.5 39 L 34.5 38 Z " /><path fill="rgb(208,200,217)" stroke="rgb(208,200,217)" stroke-width="1" opacity="1" d="M 49.5 38 L 45.5 43 L 49.5 38 Z " /><path fill="rgb(208,200,217)" stroke="rgb(208,200,217)" stroke-width="1" opacity="1" d="M 7.5 45 L 8.5 47 L 7.5 45 Z " /><path fill="rgb(208,200,217)" stroke="rgb(208,200,217)" stroke-width="1" opacity="1" d="M 33.5 45 L 34.5 47 L 33.5 45 Z " /><path fill="rgb(208,200,217)" stroke="rgb(208,200,217)" stroke-width="1" opacity="1" d="M 25.5 52 L 34 52.5 L 25.5 53 L 25.5 52 Z " /><path fill="rgb(255,255,255)" stroke="rgb(255,255,255)" stroke-width="1" opacity="1" d="M 54.5 2 L 73.5 2 Q 83 3.6 88 9.5 Q 90.7 12.8 90 19.5 Q 85.8 30.8 76.5 37 Q 65.1 45.6 49.5 50 L 39.5 52 L 20.5 52 Q 10.8 50.2 6 43.5 Q 3.7 40.3 5 33.5 Q 8.5 24.5 15.5 19 Q 30.8 6.3 54.5 2 Z M 35 11 Q 31 12 32 18 L 37 21 L 47 24 L 48 27 L 48 32 L 46 35 L 40 38 Q 34 37 32 39 L 33 46 L 37 48 L 46 43 Q 52 39 54 30 L 60 24 Q 68 26 70 21 L 69 16 L 67 15 L 62 15 L 54 22 L 48 21 L 44 15 Q 42 10 35 11 Z " /><path fill="rgb(65,64,140)" stroke="rgb(65,64,140)" stroke-width="1" opacity="0.996078431372549" d="M 60.5 0 L 78.5 1 Q 87.4 3.1 92 9.5 L 93 19.5 Q 89.2 30.2 80.5 36 L 60.5 47 L 60.5 46 Q 75.3 40.3 85 29.5 L 90 20.5 L 90 12.5 L 83.5 5 L 75.5 2 L 60.5 1 Q 59 3.5 53.5 2 L 53.5 1 Q 59 2.5 60.5 0 Z " /><path fill="rgb(65,64,140)" stroke="rgb(65,64,140)" stroke-width="1" opacity="0.996078431372549" d="M 48.5 2 L 52 2.5 L 48.5 3 L 48.5 2 Z " /><path fill="rgb(65,64,140)" stroke="rgb(65,64,140)" stroke-width="1" opacity="0.996078431372549" d="M 44.5 3 L 47 3.5 L 41.5 5 L 41.5 4 L 44.5 3 Z " /><path fill="rgb(65,64,140)" stroke="rgb(65,64,140)" stroke-width="1" opacity="0.996078431372549" d="M 38.5 5 L 40 5.5 Q 19.9 11.9 8 26.5 Q 4.5 31 4 38.5 L 5 42.5 L 8.5 47 L 19.5 52 L 33.5 53 L 34.5 52 L 46.5 51 L 58.5 47 L 58.5 48 L 50.5 51 L 35.5 54 L 19.5 54 L 11.5 52 L 2 45.5 Q -0.7 41.7 1 33.5 Q 5.3 23.8 13.5 18 Q 24.2 9.7 38.5 5 Z " /><path fill="rgb(65,64,140)" stroke="rgb(65,64,140)" stroke-width="1" opacity="0.996078431372549" d="M 35.5 11 L 39.5 11 L 45 16.5 L 49.5 22 L 52.5 23 L 60.5 16 L 65.5 15 L 70 18.5 L 67.5 23 L 59.5 24 L 55 27.5 L 51.5 32 L 48 30.5 Q 49.3 24.3 45.5 23 L 33 19 L 32 14.5 L 33 12 L 35.5 11 Z " /><path fill="rgb(219,71,52)" stroke="rgb(219,71,52)" stroke-width="1" opacity="1" d="M 48.5 32 L 52 33 Q 49.6 40.6 42.5 45 L 35.5 47 Q 32.3 45.3 32 40.5 L 44.5 36 L 48.5 32 Z " /><path fill="rgb(0,0,0)" stroke="rgb(0,0,0)" stroke-width="1" opacity="0" d="M 0 0 L 54 0.5 Q 21.3 5.8 4 26.5 L 0.5 34 L 0 0 Z " /><path fill="rgb(0,0,0)" stroke="rgb(0,0,0)" stroke-width="1" opacity="0" d="M 78.5 0 L 94 0 L 94 11.5 L 93 11.5 L 87.5 4 L 78.5 1 L 78.5 0 Z " /><path fill="rgb(0,0,0)" stroke="rgb(0,0,0)" stroke-width="1" opacity="0" d="M 93.5 19 L 94 55 L 34 54.5 Q 70.3 50.3 89 28.5 L 93.5 19 Z " /><path fill="rgb(0,0,0)" stroke="rgb(0,0,0)" stroke-width="1" opacity="0" d="M 0.5 43 L 5.5 50 Q 11.3 54.2 21 54.5 L 0 55 L 0.5 43 Z " /></svg>